<svg width="15" height="14" viewBox="0 0 15 14" fill="none" xmlns="http://www.w3.org/2000/svg">
<path d="M8.07937 4.26172L8.07812 7.61302C8.07812 7.74027 8.12344 7.86189 8.20404 7.9517L10.355 10.3487L10.9627 9.67131L8.93766 7.41466L8.93891 4.26172H8.07937Z" fill="#444444"/>
<path d="M8.43751 0C5.13802 0 2.40727 2.61377 1.94992 6H0L2.34375 8.5L4.6875 6H2.89717C3.34563 3.16687 5.65573 1.00001 8.43751 1.00001C11.5393 1.00001 14.0625 3.69141 14.0625 7.00001C14.0625 10.3086 11.5393 13 8.43751 13C6.69389 13 5.07708 12.1582 4.00177 10.6904L3.26294 11.3057C4.5172 13.0176 6.40319 14 8.43751 14C12.0561 14 15 10.8594 15 7.00001C15 3.14066 12.0561 2.90312e-05 8.43751 0Z" fill="#444444"/>
</svg>
