<svg viewBox="350 225 92 155" preserveAspectRatio="xMidYMid" id="kohler_logo" width="92" height="155" xmlns="http://www.w3.org/2000/svg"><style>.akst0{fill:#fff}</style><g preserveAspectRatio="xMidYMid" id="akKIPS1920_-_White"><g preserveAspectRatio="xMidYMid" id="akKIPS1920_Logo_-_White_1_"><path preserveAspectRatio="xMidYMid" id="akKOHLER_xAE__2_" class="akst0" d="M434.5 301.6H456v17.9h-40.6v-70h19.1v52.1zM391.4 274h-19.3v-24.5H353v70h19.1v-26h19.3v26h19.1v-70h-19.1V274zM226 249.5v70h19.1v-25l21.5 25h25.3l-31.6-36.7 27.6-33.3h-24.8L245 270.3v-20.8h-19zm87.7 52.4c9 0 16.2-8 16.2-18 0-9.9-7.3-18-16.2-18-9 0-16.2 8-16.2 18 0 9.9 7.3 18 16.2 18m0-54.5c19.9 0 36.1 16.3 36.1 36.5 0 20.1-16.2 36.5-36.1 36.5-19.9 0-36.1-16.3-36.1-36.5 0-20.1 16.2-36.5 36.1-36.5m165.8 45h17.7v-15.7h-17.7l.1-11.1h19.2v-16.1h-38.9v70h39v-16.4h-19.4v-10.7zm47.8-13.2a6.7 6.7 0 000-13.4h-5.4v13.5l5.4-.1m-.1-29.7c21.1 0 34.5 26.5 11.4 42l19.9 28h-20.9L521.9 298v21.5h-18.7v-70h24m39.8 71.6c2.7 0 4.8-2 4.8-4.8s-2.1-4.8-4.8-4.8c-2.8 0-4.8 2-4.8 4.8s2.1 4.8 4.8 4.8m0-11.2c3.5 0 6.3 2.8 6.3 6.3s-2.8 6.3-6.3 6.3-6.3-2.8-6.3-6.3c0-3.4 2.8-6.3 6.3-6.3m.7 5.8c.7 0 1.1-.2 1.1-1 0-.7-.8-.7-1.5-.7H566v1.7h1.7m2.6-.8c0 1.2-.6 1.7-1.8 1.8l1.6 2.8h-1.6l-1.5-2.8h-1v2.8h-1.5v-6.6h3.2c1.5 0 2.6.3 2.6 2"></path><path preserveAspectRatio="xMidYMid" id="akIN_POWER._SINCE_1920._2_" class="akst0" d="M379.2 362.2c-1.7 0-3.1-1.4-3.1-3.1 0-1.7 1.4-3.1 3.1-3.1 1.7 0 3.1 1.4 3.1 3.1 0 1.7-1.4 3.1-3.1 3.1m183.4 0c1.7 0 3.1-1.4 3.1-3.1 0-1.7-1.4-3.1-3.1-3.1-1.7 0-3.1 1.4-3.1 3.1 0 1.7 1.4 3.1 3.1 3.1m-15.8-13.8c0 7.7.3 9.7 2.5 9.7s2.5-2.1 2.5-9.7c0-7.8-.3-9.8-2.5-9.8-2.2-.1-2.5 2-2.5 9.8m11.5-.1c0 7.8-.9 13.8-8.9 13.8-8.1 0-8.9-5.1-8.9-13.8 0-7.8.9-13.8 8.9-13.8s8.9 5.1 8.9 13.8m-37.3-4.8v-.9c0-5.4 2.9-8.2 8.7-8.2 6.6 0 8.4 3.3 8.4 7.6 0 4.1-.9 5.6-4.3 8.8-2.6 2.6-4.6 4.2-5.3 5.8h9.6v5h-17.3c0-6.4 3.8-10.2 6.1-12.2 4.6-4.1 4.7-5.3 4.7-7.3 0-2.1-.4-3.6-2.3-3.6-2.5 0-2.5 2.9-2.5 5H521zm-13.1 11.8c0 .7.1 1.4.4 2 .3.6.8.8 1.6.8 2.1 0 2.7-1.7 2.7-7.7h-.1c-.9 1.6-2.5 2.4-4.8 2.4-4.1 0-6.5-2.3-6.5-8.4 0-5.4 1.7-9.9 8.9-9.9 8 0 9 5.1 9 13.2 0 9-.7 14.4-9.4 14.4-4.9 0-7.8-2-7.9-6.9h6.1zm2.1-7.2c1.9 0 2.3-1.9 2.3-4.3 0-3.2-.5-5.2-2.4-5.2-1.8 0-2.4 1.8-2.4 4.7.1 3.3.5 4.8 2.5 4.8m-18-5.3h-5.2v-4.1h.8c4.9 0 6-2.5 6.3-4.3h4.5v27.1H492v-18.7zm-29.1-8.5h15.8v5.2h-9.4v5.5h8.8v5.2h-8.8v6.3h9.8v5.2h-16.2v-27.4zm-9 9.5c0-4-.5-5.8-2.6-5.8-2.6 0-2.8 2.5-2.8 9.6 0 8.1.3 10.2 3 10.2 2.3 0 2.7-2.7 2.7-7h6.2v1c0 5.9-1.6 10.3-9.6 10.3-8.2 0-8.9-6.2-8.9-14.4 0-7 .4-14 9.5-14 5.7 0 8.8 2.5 8.8 8.9v1.2h-6.3zm-33.3-9.5h7.4l5.3 17.8h.1v-17.8h6v27.4H432l-5.6-18.9h-.1v18.9h-5.7v-27.4zm-9.9 0h6.4v27.4h-6.4v-27.4zm-14.7 19v1c0 2.1.5 3.6 2.8 3.6s2.9-1.7 2.9-3.3c0-5.9-11.8-2.6-11.8-12.8 0-4.4 2.3-8 9-8 6.4 0 8.7 3.3 8.7 7.5v.7h-6.2c0-1.3-.2-2.3-.5-2.9-.4-.7-1-1-2-1-1.7 0-2.6 1-2.6 3 0 5.8 11.8 2.8 11.8 12.5 0 6.2-3.4 8.7-9.3 8.7-4.7 0-9-1.4-9-7.1v-1.8h6.2zm-34.5-7.5h2c2.6 0 3.3-1.9 3.3-3.6 0-2-.8-3.5-3.3-3.5h-2v7.1zm-6.4-11.5h10.8c5.5 0 7.4 3.4 7.4 7.1 0 4-1.6 5.9-4.6 6.7v.1c4.1.6 4.3 3.1 4.4 6.8.1 5.4.3 5.9 1.2 6.3v.3h-6.9c-.5-.9-.7-2.5-.7-5.6 0-4.8-.7-5.7-2.7-5.7h-2.5v11.3h-6.4v-27.3zm-18.6 0h15.8v5.2h-9.4v5.5h8.8v5.2h-8.8v6.3h9.8v5.2h-16.2v-27.4zm-31.2 0h6.4l2.4 19.5h.1l2.8-19.5h6l3.1 19.5h.1l2.3-19.5h6.2l-4.8 27.4h-7.1l-2.8-19.4h-.1l-2.6 19.4h-7.1l-4.9-27.4zm-13 13.6c0 7.5.3 9.9 2.9 9.9s3-2.4 3-9.9-.4-9.9-3-9.9c-2.5 0-2.9 2.4-2.9 9.9m12.6 0c0 7.6-.5 14.2-9.6 14.2-8.5 0-9.6-5.5-9.6-14.2s1.1-14.2 9.6-14.2c9 0 9.6 6.6 9.6 14.2m-39-13.6h10c6.8 0 8.1 4.9 8.1 8.3 0 4.9-2.3 8.3-8.8 8.3h-2.8v10.7H266v-27.3zm6.5 11.8h1.8c2.6 0 3.2-1.6 3.2-3.4 0-2.1-.7-3.7-3.3-3.7h-1.6v7.1zm-36.6-11.8h7.4l5.3 17.8h.1v-17.8h6v27.4h-7.3l-5.6-18.9h-.1v18.9h-5.7v-27.4zm-9.8 0h6.4v27.4H226v-27.4z"></path></g></g></svg>