<svg width="28" height="28" viewBox="0 0 28 28" fill="none" xmlns="http://www.w3.org/2000/svg">
<path d="M0.575195 27.9998H10.0683C14.5698 27.9998 18.219 24.3506 18.219 19.8491H8.72588C4.22438 19.8491 0.575195 23.4983 0.575195 27.9998Z" fill="#F22BB2"/>
<path d="M1 8.15069V20.137C5.5015 20.137 9.15069 16.4878 9.15069 11.9863V0C4.64919 0 1 3.64919 1 8.15069Z" fill="#8C30F5"/>
<path d="M27.4251 0H17.9319C13.4304 0 9.78125 3.64919 9.78125 8.15068H19.2744C23.7759 8.15068 27.4251 4.5015 27.4251 0Z" fill="#FE9A22"/>
<path d="M27.4251 19.3701V7.38379C22.9236 7.38379 19.2744 11.033 19.2744 15.5345V27.5208C23.7759 27.5208 27.4251 23.8716 27.4251 19.3701Z" fill="#2EC5CE"/>
</svg>
