<svg width="16" height="19" viewBox="0 0 16 19" fill="none" xmlns="http://www.w3.org/2000/svg">
<path d="M11.5051 9.18066C11.2481 9.50424 10.9595 9.80296 10.6279 10.0726C12.5205 11.1582 13.7982 13.1992 13.7982 15.5331C13.7982 16.7942 11.0351 17.7821 7.50785 17.7821C3.98055 17.7821 1.21748 16.7942 1.21748 15.5331C1.21748 13.1992 2.49521 11.1582 4.38781 10.0726C4.05629 9.80296 3.7676 9.50428 3.5106 9.18066C1.40296 10.5116 0 12.8615 0 15.5331C0 16.3424 0.443144 17.4703 2.55441 18.2476C3.87135 18.7325 5.63052 18.9995 7.50789 18.9995C9.38526 18.9995 11.1444 18.7325 12.4614 18.2476C14.5726 17.4703 15.0158 16.3424 15.0158 15.5331C15.0157 12.8615 13.6127 10.5116 11.5051 9.18066Z" fill="#444444"/>
<path d="M7.50849 9.98344C9.87464 9.98344 11.6967 7.69628 11.6967 4.99174C11.6967 2.28596 9.87372 0 7.50849 0C5.14235 0 3.32031 2.28716 3.32031 4.9917C3.32031 7.69749 5.14331 9.98344 7.50849 9.98344ZM7.50849 1.21748C9.14651 1.21748 10.4792 2.91058 10.4792 4.9917C10.4792 7.07282 9.14651 8.76592 7.50849 8.76592C5.87047 8.76592 4.53779 7.07282 4.53779 4.9917C4.53779 2.91058 5.87047 1.21748 7.50849 1.21748Z" fill="#444444"/>
</svg>
