<svg width="16" height="20" viewBox="0 0 16 20" fill="none" xmlns="http://www.w3.org/2000/svg">
<path d="M13.7133 2.62038H11.9039V1.81093C11.9039 1.54904 11.6182 1.43001 11.3563 1.43001H9.9517C9.6184 0.477697 8.78512 0.00154151 7.83281 0.00154151C6.89098 -0.033866 6.03432 0.543637 5.71392 1.43001H4.33307C4.07118 1.43001 3.80929 1.54904 3.80929 1.81093V2.62038H1.99986C0.927613 2.63181 0.0503999 3.47768 0 4.54879V18.1906C0 19.2382 0.952312 20 1.99986 20H13.7133C14.7608 20 15.7131 19.2382 15.7131 18.1906V4.54883C15.6627 3.47768 14.7855 2.63181 13.7133 2.62038ZM4.76156 2.38232H6.071C6.29958 2.35443 6.48317 2.18054 6.52337 1.95379C6.66436 1.33978 7.20304 0.899033 7.83281 0.882446C8.45675 0.901357 8.98731 1.34347 9.11841 1.95379C9.16111 2.18838 9.35683 2.3645 9.59457 2.38232H10.9516V4.28694H4.76156V2.38232ZM14.7608 18.1907C14.7608 18.7144 14.2371 19.0477 13.7133 19.0477H1.99986C1.47609 19.0477 0.952312 18.7144 0.952312 18.1907V4.54883C1.00089 4.00364 1.45257 3.58271 1.99986 3.57273H3.80925V4.78693C3.8344 5.0537 4.06544 5.25325 4.33302 5.2393H11.3563C11.6288 5.2542 11.8671 5.05739 11.9039 4.78693V3.57269H13.7132C14.2605 3.58271 14.7122 4.00359 14.7608 4.54879V18.1907H14.7608Z" fill="#067EED"/>
<path d="M6.02287 10.6436C5.84428 10.4553 5.5478 10.4447 5.35623 10.6198L3.83252 12.072L3.18972 11.4054C3.01113 11.2171 2.71465 11.2066 2.52308 11.3816C2.33866 11.5748 2.33866 11.8788 2.52308 12.072L3.49918 13.072C3.58367 13.1666 3.7057 13.2189 3.83247 13.2148C3.95806 13.213 4.07787 13.1617 4.16577 13.072L6.02277 11.3102C6.20688 11.1413 6.21918 10.8551 6.05025 10.6711C6.04159 10.6615 6.03243 10.6523 6.02287 10.6436Z" fill="#067EED"/>
<path d="M12.8582 11.667H7.38241C7.11942 11.667 6.90625 11.8802 6.90625 12.1431C6.90625 12.4061 7.11942 12.6193 7.38241 12.6193H12.8582C13.1212 12.6193 13.3343 12.4061 13.3343 12.1431C13.3343 11.8802 13.1212 11.667 12.8582 11.667Z" fill="#067EED"/>
<path d="M6.02287 6.83399C5.84428 6.64575 5.5478 6.63513 5.35623 6.81021L3.83252 8.26246L3.18972 7.59582C3.01113 7.40758 2.71465 7.39696 2.52308 7.57204C2.33866 7.76525 2.33866 8.06925 2.52308 8.26246L3.49918 9.26239C3.58367 9.35699 3.7057 9.40931 3.83247 9.40525C3.95806 9.40348 4.07787 9.35212 4.16577 9.26239L6.02277 7.50063C6.20688 7.33175 6.21918 7.04557 6.05025 6.86152C6.04159 6.8519 6.03243 6.84274 6.02287 6.83399Z" fill="#067EED"/>
<path d="M12.8582 7.85742H7.38241C7.11942 7.85742 6.90625 8.0706 6.90625 8.33358C6.90625 8.59656 7.11942 8.80973 7.38241 8.80973H12.8582C13.1212 8.80973 13.3343 8.59656 13.3343 8.33358C13.3343 8.0706 13.1212 7.85742 12.8582 7.85742Z" fill="#067EED"/>
<path d="M6.02287 14.4531C5.84428 14.2649 5.5478 14.2543 5.35623 14.4293L3.83252 15.8816L3.18972 15.2149C3.01113 15.0267 2.71465 15.0161 2.52308 15.1912C2.33866 15.3844 2.33866 15.6884 2.52308 15.8816L3.49918 16.8815C3.58367 16.9761 3.7057 17.0284 3.83247 17.0244C3.95806 17.0226 4.07787 16.9712 4.16577 16.8815L6.02277 15.1198C6.20688 14.9509 6.21918 14.6647 6.05025 14.4806C6.04159 14.4711 6.03243 14.4619 6.02287 14.4531Z" fill="#067EED"/>
<path d="M12.8582 15.4766H7.38241C7.11942 15.4766 6.90625 15.6897 6.90625 15.9527C6.90625 16.2157 7.11942 16.4289 7.38241 16.4289H12.8582C13.1212 16.4289 13.3343 16.2157 13.3343 15.9527C13.3343 15.6897 13.1212 15.4766 12.8582 15.4766Z" fill="#067EED"/>
</svg>
