<svg width="15" height="15" viewBox="0 0 15 15" fill="none" xmlns="http://www.w3.org/2000/svg">
<path d="M10.0573 11.1616C8.80494 12.135 7.22888 12.5941 5.65003 12.4457C4.07118 12.2972 2.60825 11.5522 1.55911 10.3625C0.50997 9.1727 -0.0464857 7.62758 0.00304397 6.04173C0.0525737 4.45589 0.704365 2.94855 1.8257 1.82664C2.94704 0.704725 4.45361 0.0526006 6.03864 0.00304553C7.62368 -0.0465095 9.168 0.510231 10.3572 1.55991C11.5463 2.60958 12.2909 4.07326 12.4393 5.65292C12.5877 7.23258 12.1288 8.80944 11.1559 10.0624L14.7702 13.6651C15.0762 13.9701 15.0767 14.4654 14.7713 14.771C14.4658 15.0765 13.9704 15.0763 13.6653 14.7705L10.0651 11.1616H10.0573ZM6.23937 10.9122C6.8533 10.9122 7.46122 10.7912 8.02841 10.5561C8.59561 10.321 9.11098 9.97651 9.54509 9.54218C9.9792 9.10784 10.3236 8.59221 10.5585 8.02472C10.7934 7.45724 10.9144 6.84901 10.9144 6.23477C10.9144 5.62052 10.7934 5.01229 10.5585 4.44481C10.3236 3.87732 9.9792 3.36169 9.54509 2.92735C9.11098 2.49302 8.59561 2.14848 8.02841 1.91342C7.46122 1.67836 6.8533 1.55738 6.23937 1.55738C4.99948 1.55738 3.81038 2.05017 2.93365 2.92735C2.05692 3.80453 1.56437 4.99425 1.56437 6.23477C1.56437 7.47529 2.05692 8.665 2.93365 9.54218C3.81038 10.4194 4.99948 10.9122 6.23937 10.9122Z" fill="white"/>
</svg>
