<svg width="18" height="22" viewBox="0 0 18 22" fill="none" xmlns="http://www.w3.org/2000/svg">
<path d="M15.93 3.41815H12.3123V2.76039C12.3123 1.67233 11.4271 0.787109 10.3391 0.787109H7.70802C6.61996 0.787109 5.73474 1.67233 5.73474 2.76039V3.41815H2.11706C1.21033 3.41815 0.472656 4.15583 0.472656 5.06255V7.36472C0.472656 7.72797 0.767169 8.02248 1.13042 8.02248H1.48988L2.05815 19.956C2.10834 21.0099 2.97412 21.8355 4.02917 21.8355H14.0179C15.073 21.8355 15.9388 21.0099 15.9889 19.956L16.5572 8.02248H16.9167C17.2799 8.02248 17.5744 7.72797 17.5744 7.36472V5.06255C17.5744 4.15583 16.8368 3.41815 15.93 3.41815ZM7.05026 2.76039C7.05026 2.39772 7.34535 2.10263 7.70802 2.10263H10.3391C10.7017 2.10263 10.9968 2.39772 10.9968 2.76039V3.41815H7.05026V2.76039ZM1.78818 5.06255C1.78818 4.88122 1.93572 4.73367 2.11706 4.73367H15.93C16.1114 4.73367 16.2589 4.88122 16.2589 5.06255V6.70696C16.0562 6.70696 2.62818 6.70696 1.78818 6.70696V5.06255ZM14.6749 19.8935C14.6582 20.2447 14.3696 20.5199 14.0179 20.5199H4.02917C3.67747 20.5199 3.38888 20.2447 3.37219 19.8935L2.80688 8.02248H15.2402L14.6749 19.8935Z" fill="#444444"/>
<path d="M9.02495 19.2043C9.3882 19.2043 9.68271 18.9098 9.68271 18.5465V9.99565C9.68271 9.6324 9.3882 9.33789 9.02495 9.33789C8.6617 9.33789 8.36719 9.6324 8.36719 9.99565V18.5465C8.36719 18.9098 8.66166 19.2043 9.02495 19.2043Z" fill="#444444"/>
<path d="M12.314 19.2043C12.6773 19.2043 12.9718 18.9098 12.9718 18.5465V9.99565C12.9718 9.6324 12.6773 9.33789 12.314 9.33789C11.9508 9.33789 11.6562 9.6324 11.6562 9.99565V18.5465C11.6562 18.9098 11.9507 19.2043 12.314 19.2043Z" fill="#444444"/>
<path d="M5.73589 19.2043C6.09913 19.2043 6.39365 18.9098 6.39365 18.5465V9.99565C6.39365 9.6324 6.09913 9.33789 5.73589 9.33789C5.37264 9.33789 5.07812 9.6324 5.07812 9.99565V18.5465C5.07812 18.9098 5.3726 19.2043 5.73589 19.2043Z" fill="#444444"/>
</svg>
