<svg width="30" height="24" viewBox="0 0 30 24" fill="none" xmlns="http://www.w3.org/2000/svg">
<path d="M25 24H0V0H30V24H25ZM4 0.960001H1V3.84H4V0.960001ZM4 4.8H1V7.68H4V4.8ZM4 8.64H1V11.52H4V8.64ZM4 12.48H1V15.36H4V12.48ZM4 16.32H1V19.2H4V16.32ZM4 20.16H1V23.04H4V20.16ZM25 0.960001H5V23.04H25V0.960001ZM29 0.960001H26V3.84H29V0.960001ZM29 4.8H26V7.68H29V4.8ZM29 8.64H26V11.52H29V8.64ZM29 12.48H26V15.36H29V12.48ZM29 16.32H26V19.2H29V16.32ZM29 20.16H26V23.04H29V20.16Z" fill="#4B4B4B"/>
<path d="M18.9357 12.2377C18.8914 12.3119 18.8273 12.3735 18.75 12.4159L11.75 16.2559C11.5109 16.3885 11.2051 16.3098 11.067 16.0802C11.0227 16.0066 10.9996 15.9229 11 15.8378V8.15785C11.0002 7.98655 11.0954 7.82833 11.25 7.74265C11.4047 7.65691 11.5953 7.65691 11.75 7.74265L18.75 11.5827C18.9897 11.7143 19.0728 12.0075 18.9357 12.2377ZM12 8.98537V15.0103L17.492 11.9978L12 8.98537Z" fill="#4B4B4B"/>
</svg>
