<svg width="16" height="14" viewBox="0 0 16 14" fill="none" xmlns="http://www.w3.org/2000/svg">
<path d="M13.6923 0H2.30769C1.03522 0 0 1.03522 0 2.30769V10.9231C0 12.1955 1.03522 13.2307 2.30769 13.2307H13.6923C14.9648 13.2307 16 12.1955 16 10.9231V2.30769C16 1.03522 14.9648 0 13.6923 0ZM15.0769 8H11.6923C10.9288 8 10.3077 7.37887 10.3077 6.61537C10.3077 5.85187 10.9288 5.23075 11.6923 5.23075H15.0769V8ZM15.0769 4.30769H11.6923C10.4198 4.30769 9.38463 5.34291 9.38463 6.61537C9.38463 7.88784 10.4198 8.92306 11.6923 8.92306H15.0769V10.9231C15.0769 11.6865 14.4558 12.3077 13.6923 12.3077H2.30769C1.54422 12.3077 0.923063 11.6866 0.923063 10.9231V2.30769C0.923063 1.54422 1.54419 0.923063 2.30769 0.923063H13.6923C14.4558 0.923063 15.0769 1.54419 15.0769 2.30769V4.30769Z" fill="#444444"/>
<path d="M12.3074 6.15332H11.692C11.4371 6.15332 11.2305 6.35998 11.2305 6.61485C11.2305 6.86976 11.4371 7.07638 11.692 7.07638H12.3074C12.5623 7.07638 12.7689 6.86973 12.7689 6.61485C12.7689 6.35995 12.5623 6.15332 12.3074 6.15332Z" fill="#444444"/>
</svg>
